<?xml version="1.0" standalone="no"?><!DOCTYPE svg PUBLIC "-//W3C//DTD SVG 1.1//EN" "http://www.w3.org/Graphics/SVG/1.1/DTD/svg11.dtd"><svg t="1739241058670" class="icon" viewBox="0 0 1024 1024" version="1.1" xmlns="http://www.w3.org/2000/svg" p-id="5160" xmlns:xlink="http://www.w3.org/1999/xlink" width="64" height="64"><path d="M80 1008h864a64 64 0 0 0 64-64V80a64 64 0 0 0-64-64H80a64 64 0 0 0-64 64v864a64 64 0 0 0 64 64z" fill="#E21743" p-id="5161"></path><path d="M16 272v672a64 64 0 0 0 64 64h864a64 64 0 0 0 64-64V272c0 194.261333-157.781333 352-352 352h-288c-194.261333 0-352-157.738667-352-352z" fill="#C7002B" p-id="5162"></path><path d="M80 944a64 64 0 0 1-64-64v64a64 64 0 0 0 64 64h864a64 64 0 0 0 64-64v-64a64 64 0 0 1-64 64H80z" fill="#960E2C" p-id="5163"></path><path d="M80 16a64 64 0 0 0-64 64v64a64 64 0 0 1 64-64h864a64 64 0 0 1 64 64v-64a64 64 0 0 0-64-64H80z" fill="#EA5172" p-id="5164"></path><path d="M272 224L240 128l-32 96h-96l64 64L144 384l96-64L336 384l-32-96 64-64h-96zM632.021333 363.989333l23.978667-27.989333h-32l-16-32-16 32h-32l24.021333 27.989333-8.021333 36.010667 28.629333-24.149333 36.010667 23.978666-8.661333-35.84zM528 496l32-17.578667-32-14.421333v-32l-23.04 28.330667-33.109333-10.88 14.549333 28.458666-22.4 28.330667 40.661333-10.410667 23.338667 32.170667v-32zM528.469333 99.370667l2.901334-35.370667-23.850667 25.941333-31.658667-14.250666 12.117334 29.909333-23.978667 25.898667 40.490667-6.229334 22.528 34.730667 3.072-35.370667 29.909333-12.629333-31.530667-12.629333zM654.08 175.530667l-34.389333 11.178666-21.589334-26.709333-3.712 31.189333-34.389333 11.349334 39.850667 13.312 3.669333 40.149333 19.84-29.141333 32.64 4.48-21.76-26.709334 19.84-29.098666z" fill="#FFB844" p-id="5165"></path></svg>